<?xml version="1.0" encoding="UTF-8"?>
<svg id="Layer_1" data-name="Layer 1" xmlns="http://www.w3.org/2000/svg" viewBox="0 0 475.68 125.04">
  <defs>
    <style>
      .cls-1 {
        fill: #fff;
      }
    </style>
  </defs>
  <path class="cls-1" d="m.243.25c.358-.018.716-.052,1.075-.052,34.308-.002,68.617-.002,102.925-.002.318,0,.637,0,1.118,0v1.188c0,21.233.038,42.466-.027,63.698-.017,5.446-1.074,10.755-2.876,15.913-2.975,8.51-7.823,15.851-13.999,22.333-9.546,10.02-21.018,16.981-34.161,21.237-.353.114-.679.314-1.018.474h-1.2c-1.892-.723-3.79-1.428-5.674-2.171-13.582-5.357-25.165-13.473-34.139-25.07-6.145-7.94-10.47-16.734-11.785-26.825C.358,70.031.162,69.098,0,68.16c0-.88,0-1.76,0-2.64.08-.449.229-.898.229-1.347.013-21.308.013-42.615.014-63.923Zm2.536,2.66c0,.582,0,1.061,0,1.539,0,20.116-.008,40.231.014,60.347.002,1.784.169,3.571.319,5.352.323,3.844,1.359,7.548,2.755,11.1,1.706,4.343,3.912,8.464,6.627,12.29,9.811,13.824,23.136,22.823,38.975,28.346.714.249,1.657.216,2.387-.018,5.556-1.781,10.883-4.114,15.867-7.153,14.772-9.007,26.13-20.841,31.181-37.873,1.093-3.687,1.723-7.461,1.737-11.271.074-20.435.035-40.871.035-61.307v-1.352H2.779Z"/>
  <path class="cls-1" d="m475.68,72.24c-.208.693-.407,1.388-.625,2.077-1.747,5.52-5.564,8.953-11.208,9.555-4.849.518-9.798.107-14.755.107v-1.225c.065-.048.124-.129.189-.134,2.014-.167,2.379-.6,2.393-3.095.023-4.075.006-8.151.006-12.226,0-1.998.019-3.996-.006-5.993-.026-2.119-.481-2.604-2.581-2.815v-1.354c.347-.021.693-.058,1.039-.059,3.676-.004,7.352-.039,11.028.009,2.751.036,5.444.501,7.91,1.778,3.669,1.901,5.652,5.034,6.362,9.043.044.25.164.487.248.73v3.6Zm-18.436-1.775c0,3.318.033,6.636-.021,9.952-.016.97.297,1.287,1.24,1.194,1.261-.124,2.551-.048,3.793-.264,3.862-.672,6.708-2.676,7.828-6.588.853-2.981.897-6.001-.122-8.975-.857-2.502-2.452-4.399-4.885-5.453-2.088-.904-4.338-1.048-6.596-1.059-.882-.004-1.27.273-1.255,1.241.051,3.317.019,6.635.02,9.952Z"/>
  <path class="cls-1" d="m475.418,8.611c-1.159.045-2.06.57-2.644,1.553-2.364,3.976-4.714,7.961-7.036,11.962-.203.35-.224.841-.228,1.267-.021,2.238-.015,4.476-.009,6.714.006,2.059.337,2.414,2.442,2.598v1.346h-10.164v-1.282c2.243-.371,2.52-.696,2.539-3.002.01-1.279-.116-2.571.028-3.834.259-2.28-.495-4.129-1.794-5.971-2.253-3.193-4.313-6.523-6.439-9.806-.595-.919-1.298-1.617-2.54-1.526v-1.507h9.978v1.426c-1.895.217-2.075.63-1.02,2.231,1.861,2.826,3.719,5.653,5.682,8.637,1.133-1.914,2.181-3.677,3.221-5.445.687-1.169,1.365-2.344,2.043-3.518.831-1.438.68-1.722-1.061-1.879v-1.613h7.265v.48c-.088.39-.175.78-.262,1.171Z"/>
  <path class="cls-1" d="m.243.25c-.001,21.308-.001,42.615-.014,63.923,0,.449-.149.898-.229,1.347C0,43.76,0,22,0,.24c.081.003.162.006.243.01Z"/>
  <path class="cls-1" d="m156,0c.001.071.005.141.011.212-9.048-.004-18.096-.008-27.144-.012,0-.067.005-.133.014-.199h27.12Z"/>
  <path class="cls-1" d="m240,0c-.005.087-.01.175-.015.262-4.309.002-8.617.004-12.926.007-.007-.09-.013-.179-.02-.269,4.32,0,8.64,0,12.96,0Z"/>
  <path class="cls-1" d="m250.064.188c-.006-.064,0-.127.016-.188h10.08c-.003.084-.005.169-.008.253-3.363-.022-6.725-.043-10.088-.065Z"/>
  <path class="cls-1" d="m475.418,8.611c.087-.39.175-.78.262-1.171v1.2c-.087-.01-.175-.02-.262-.029Z"/>
  <path class="cls-1" d="m221.09,83.593c2.364,4.051,5.895,6.134,10.399,6.696.221,1.631.218,1.693-1.387,1.621-6.086-.275-11.664-2.024-16.347-6.043-1.164-.999-2.382-1.699-3.809-2.216-5.896-2.135-9.201-6.478-10.527-12.507-1.08-4.91-.269-9.5,2.241-13.788,3.067-5.24,9.612-8.667,16.942-7.021,5.046,1.133,8.744,3.806,10.995,8.364,1.346,2.726,1.826,5.7,1.804,8.788-.021,2.893-.489,5.65-1.72,8.24-1.601,3.369-4.136,5.836-7.571,7.347-.321.141-.626.318-1.019.519Zm-6.193-30.839c-.367.057-1.038.099-1.673.271-2.515.678-4.155,2.388-5.393,4.594-1.651,2.943-1.934,6.208-2.093,9.448-.085,1.733.408,3.495.64,5.243.332,2.504,1.359,4.732,3.042,6.564,2.707,2.947,5.457,3.33,8.699,2.167,2.843-1.019,4.352-3.421,5.298-6.137,1.201-3.447,1.416-6.989,1.047-10.639-.236-2.338-.679-4.563-1.794-6.596-1.603-2.922-3.877-4.943-7.773-4.916Z"/>
  <path class="cls-1" d="m143.961,49.9c6.834.092,11.965,3.012,14.777,9.353,1.379,3.11,1.747,6.432,1.404,9.913-.496,5.031-2.45,9.131-6.466,12.214-2.162,1.66-4.671,2.424-7.325,2.875-6.736,1.145-13.475-2.677-16.32-8.387-1.43-2.869-2.33-5.902-2.069-9.077.529-6.456,2.594-12.143,8.885-15.297,2.227-1.117,4.591-1.694,7.115-1.594Zm-9.349,17.563c.143,2.829.566,5.839,1.945,8.65,1.183,2.411,2.817,4.444,5.451,5.206,3.287.95,6.596-.326,8.65-3.241,2.133-3.027,2.756-6.512,2.924-10.088.141-2.993-.236-5.961-1.214-8.807-1.06-3.084-3.256-5.797-7.194-6.378-3.367-.497-6.575,1.316-8.321,4.568-1.651,3.074-2.109,6.417-2.241,10.091Z"/>
  <path class="cls-1" d="m250.064.188c3.363.022,6.725.043,10.088.065.003.32-.021.642.014.959.082.753-.274.948-.98.963-2.162.044-2.247.157-2.247,2.336,0,5.879.019,11.759-.009,17.638-.012,2.429-.354,4.814-1.692,6.916-1.962,3.083-4.933,4.624-8.425,5.247-2.926.523-5.809.353-8.639-.678-4.339-1.581-7.711-5.552-7.76-10.278-.058-5.719-.014-11.439-.014-17.158,0-.24,0-.48,0-.72-.004-2.52-.698-3.248-3.34-3.356V.269c4.309-.002,8.617-.004,12.926-.007v1.524c-.655.157-1.325.181-1.844.473-.92.517-1.528,1.26-1.52,2.472.041,6.114.075,12.23,0,18.343-.059,4.835,4.306,9.364,9.924,7.814,1.239-.342,2.493-.815,3.578-1.488,2.19-1.358,3.229-3.505,3.252-6.033.058-6.434.026-12.868.014-19.303-.003-1.552-.422-1.921-2.014-1.903-1.673.018-1.886-.302-1.314-1.972Z"/>
  <path class="cls-1" d="m160.39,7.127h9.99c.047.793.221,1.504-1.006,1.567-.944.048-1.286.949-1.301,1.768-.052,2.788-.02,5.578-.02,8.433h10.339c0-2.896.069-5.761-.031-8.62-.046-1.31-.585-1.582-2.479-1.729v-1.409h10.142v1.341c-2.237.366-2.514.658-2.521,2.947-.017,6.117-.006,12.234-.004,18.351,0,.199.014.399.029.598.135,1.76.605,2.224,2.4,2.299v1.358h-10.204v-1.299c2.213-.234,2.673-.557,2.738-2.495.095-2.827.024-5.66.024-8.564h-10.417c0,3.073-.061,6.138.027,9.199.041,1.426,1.12,1.877,2.459,1.806v1.347h-10.146v-1.244c.358-.117.811-.165,1.137-.394.462-.325.936-.725,1.203-1.205.212-.382.159-.932.16-1.408.009-6.117.009-12.234,0-18.351,0-.515.059-1.123-.183-1.523-.307-.508-.874-1.167-1.363-1.197-1.233-.076-1.096-.721-.974-1.577Z"/>
  <path class="cls-1" d="m128.866.199c9.048.004,18.096.008,27.144.012.151.263.429.525.432.79.032,2.655.02,5.31.02,8.044h-1.27c-.121-.595-.31-1.228-.372-1.872-.266-2.744-1.783-3.521-4.257-3.567-1.559-.029-3.119.002-4.679.013-.071,0-.141.063-.306.141v1.249c0,7.64,0,15.279,0,22.919,0,3.849.448,4.323,4.34,4.516v1.586h-14.953v-1.63c.472,0,1.012.015,1.55-.003,1.538-.05,2.7-1.095,2.705-2.604.027-8.677.013-17.354.013-26.165-2.141,0-4.25-.098-6.344.039-1.153.075-2.073.857-2.49,1.98-.397,1.07-.646,2.194-.992,3.404h-1.247c0-1.734-.028-3.501.011-5.265.022-.98.13-1.961.256-2.934.03-.232.287-.435.44-.651Z"/>
  <path class="cls-1" d="m375.184,21.535c2.56,3.309,5.199,6.762,7.901,10.166.404.509,1.1.786,1.832,1.288v1.132c-2.025,0-4.052.036-6.074-.037-.328-.012-.698-.462-.948-.788-2.672-3.486-5.309-6.999-7.999-10.471-.327-.422-.902-.652-1.628-1.156,0,3.393-.072,6.336.034,9.272.045,1.26.756,1.648,2.434,1.749v1.353h-10.156v-1.273c2.305-.405,2.574-.731,2.574-3.117,0-6.074.001-12.149,0-18.223,0-2.143-.055-2.151-2.132-2.84-.334-.111-.48-.784-.9-1.527,2.686,0,4.947-.017,7.207.006,1.753.018,3.527-.068,5.253.175,1.68.236,3.417.601,4.939,1.314,3.531,1.654,4.15,7.33,1.463,10.054-1.07,1.084-2.428,1.884-3.8,2.924Zm-6.98-1.742c1.159-.143,2.196-.152,3.164-.414,2.477-.671,4.168-2.826,3.969-5.122-.319-3.679-3.53-4.961-6.416-4.605-.271.033-.681.561-.686.866-.052,2.993-.031,5.988-.031,9.275Z"/>
  <path class="cls-1" d="m284.069,23.731c.014-4.397.046-8.794.03-13.191-.005-1.442-.578-1.862-2.489-1.969v-1.437h7.766c.218.826.085,1.355-.929,1.539-1.08.196-1.382.996-1.378,2.057.027,7.317.014,14.634.014,21.951,0,.433,0,.867,0,1.258-.994.433-1.468-.154-1.973-.742-4.82-5.604-9.647-11.202-14.475-16.799-.386-.448-.793-.878-1.393-1.541-.029.651-.062,1.055-.062,1.459-.004,4.518-.003,9.036-.003,13.554,0,2.119.407,2.6,2.458,2.872v1.323h-8.032c-.264-1.09-.059-1.715,1.198-1.682.904.024,1.387-.524,1.388-1.435.004-6.437.012-12.874-.006-19.312-.003-1.027-1.853-2.897-2.89-3.009-.352-.038-.709-.037-1.139-.058v-1.497c2.286,0,4.558-.036,6.828.035.381.012.82.427,1.111.762,4.378,5.035,8.734,10.089,13.1,15.134.229.264.497.495.747.741l.094.164c.011-.059.022-.118.033-.177Z"/>
  <path class="cls-1" d="m439.611,73.658c.008-4.357.028-8.713.018-13.07-.003-1.379-.391-1.678-2.558-2.164v-1.262h7.84c.018.38.039.797.063,1.301-.208.036-.384.076-.563.096-1.406.16-1.883.665-1.884,2.056-.004,7.395.005,14.79-.018,22.185-.001.473-.226.946-.347,1.418-.481-.272-1.083-.439-1.424-.832-5.077-5.855-10.119-11.74-15.17-17.617-.203-.236-.416-.462-.871-.965v1.506c0,4.557,0,9.114,0,13.671,0,2.236.163,2.42,2.423,2.68.025.207.069.432.074.658.005.235-.028.47-.048.761h-7.892v-1.359c2.317-.452,2.459-.627,2.459-2.985,0-5.556,0-11.112,0-16.669,0-2.589-1.206-4.033-3.764-4.512-.105-.02-.206-.066-.323-.104v-1.364c2.354,0,4.697-.032,7.037.036.333.01.697.468.971.785,4.289,4.952,8.564,9.915,12.846,14.873.285.33.602.632.904.948.072.04.145.081.217.121.003-.064.006-.128.009-.191Z"/>
  <path class="cls-1" d="m319.996,65.064c-.009,5.154-.029,10.309-.021,15.463.002,1.497.478,1.881,2.522,2.167v1.354h-8.005c-.204-.875-.241-1.49,1.015-1.532.977-.033,1.542-.687,1.539-1.769-.015-6.314,0-12.628-.014-18.941-.003-1.345-1.96-3.028-3.696-3.243-.158-.02-.318-.016-.547-.027v-1.444c2.383,0,4.805-.026,7.225.034.297.007.618.444.869.733,4.373,5.035,8.736,10.078,13.105,15.116.233.268.5.507.752.759.075.043.15.087.225.13.002-.069.004-.137.005-.206.008-4.314.028-8.628.018-12.943-.004-1.576-.589-2.025-2.767-2.208v-1.35h8.049c.018.401.037.82.061,1.328-.224.029-.403.054-.583.075-1.399.161-1.861.665-1.862,2.066-.003,7.311-.001,14.621-.001,21.932v1.305c-.898.344-1.425.014-1.979-.636-5.078-5.954-10.189-11.879-15.294-17.81-.126-.147-.291-.261-.437-.39-.057-.046-.113-.091-.17-.137-.003.058-.007.115-.01.173Z"/>
  <path class="cls-1" d="m342.664,9.6v8.811c2.388,0,4.738.1,7.074-.037,1.416-.083,1.454-1.34,1.399-2.49h1.576v7.791h-1.555c0-.29.029-.633-.006-.968-.093-.91-.562-1.519-1.518-1.532-2.273-.03-4.547-.01-7.017-.01,0,1.012,0,1.951,0,2.891,0,1.999.007,3.999-.004,5.998-.004.652.084,1.304.872,1.312,2.515.028,5.039.092,7.545-.071,2.31-.15,3.664-1.689,4.486-3.747.147-.367.303-.731.456-1.101h1.535c-.831,2.585-1.628,5.063-2.447,7.611h-20.217v-1.26c.026-.03.068-.128.123-.136,2.167-.335,2.457-.611,2.464-2.759.022-6.238.088-12.477-.033-18.713-.047-2.397-.487-2.535-2.406-2.646v-1.415h19.449c.199,2.12.4,4.255.598,6.361-.926.429-1.392.646-1.578-.687-.291-2.08-1.106-3.2-3.904-3.204-2.272-.003-4.544,0-6.894,0Z"/>
  <path class="cls-1" d="m289.046,58.46v-1.317h19.545c.147,2.161.296,4.347.451,6.613h-1.264c-.058-.351-.103-.737-.187-1.113-.474-2.106-1.533-2.968-3.699-2.981-2.359-.014-4.718-.003-7.164-.003v8.729c2.404,0,4.831.053,7.252-.029.834-.028,1.338-.654,1.323-1.565-.005-.311,0-.622,0-.981h1.621c0,2.463.025,4.929-.04,7.393-.007.245-.542.608-.875.664-.2.034-.657-.393-.7-.661-.302-1.859-.464-2.028-2.354-2.03-2.069-.002-4.138,0-6.304,0,0,3.138-.027,6.17.037,9.2.007.34.524.959.805.959,2.781.002,5.577.054,8.339-.216,2.398-.235,3.288-2.232,3.986-4.245.059-.171.086-.353.127-.522h1.714c-.307.852-.605,1.596-.844,2.359-.48,1.535-.896,3.09-1.412,4.612-.11.324-.531.772-.811.774-6.475.044-12.95.034-19.476.034-.243-.908-.2-1.467.911-1.561,1.573-.134,1.524-1.527,1.536-2.531.074-6.359.126-12.721-.015-19.078-.045-2.009-.352-2.223-2.5-2.503Z"/>
  <path class="cls-1" d="m283.577,57.16c.146,2.183.29,4.34.435,6.512-1.3.36-1.429.277-1.49-1.037-.066-1.411-1.168-2.805-2.588-2.863-2.739-.112-5.487-.033-8.293-.033v8.648c2.426,0,4.861.109,7.28-.042,1.381-.086,1.373-1.426,1.501-2.531h1.377c0,2.471.017,4.971-.031,7.471-.004.215-.474.618-.673.587-.284-.045-.689-.374-.746-.644-.397-1.878-.562-2.048-2.414-2.049-2.07-.002-4.139,0-6.319,0,0,3.174-.023,6.238.035,9.3.006.304.501.856.772.858,2.789.017,5.602.145,8.361-.166,2.327-.262,3.308-2.265,4.056-4.271.055-.147.096-.3.162-.511h1.474c-.704,2.421-1.393,4.842-2.132,7.248-.066.214-.453.468-.692.468-6.591.025-13.183.02-19.828.02-.03-.425-.054-.773-.08-1.144.111-.063.2-.148.301-.166,2.095-.371,2.515-.722,2.533-2.838.053-6.277.046-12.555.003-18.832-.014-2.059-.536-2.487-2.753-2.641v-1.345h19.75Z"/>
  <path class="cls-1" d="m197.818,9.6v8.819c2.406,0,4.758.084,7.101-.031,1.424-.07,1.347-1.414,1.605-2.482h1.449v7.792h-1.47c-.037-.357-.042-.71-.116-1.047-.202-.913-.689-1.498-1.72-1.491-2.237.015-4.475.005-6.908.005,0,.497,0,.954,0,1.412,0,2.44.021,4.88-.009,7.319-.013,1.056.392,1.538,1.487,1.514,1.959-.043,3.919-.009,5.879-.013,3.192-.007,5.276-1.74,5.917-4.951h1.742c-.463,1.337-.92,2.572-1.316,3.828-.388,1.231-.713,2.481-1.083,3.782h-20.243c-.02-.394-.042-.813-.062-1.197.093-.091.139-.179.199-.189,2.091-.351,2.413-.612,2.431-2.836.052-6.199.048-12.398.002-18.597-.016-2.128-.492-2.549-2.535-2.675v-1.432h19.539c.183,2.127.366,4.239.548,6.351-1.303.544-1.469.456-1.69-.896-.343-2.096-1.353-2.973-3.465-2.981-2.395-.009-4.791-.002-7.281-.002Z"/>
  <path class="cls-1" d="m252.771,58.511v-1.369h7.819v1.383c-.203.012-.389.029-.575.035-1.396.043-1.768.399-1.771,1.795-.009,4.716-.017,9.433,0,14.149.02,5.487-2.63,8.498-7.51,9.606-4.113.933-7.859.2-11.007-2.71-1.791-1.655-2.69-3.744-2.663-6.243.048-4.396.022-8.793.003-13.19-.003-.666.023-1.408-.253-1.975-.257-.53-.83-1.066-1.383-1.258-.861-.3-1.144-.706-.842-1.6h9.928v1.318c-1.751.357-2.307,1.053-2.312,2.905-.013,4.836-.024,9.672-.027,14.508-.002,2.932,2.832,5.702,5.79,5.747,1.583.024,3.032-.364,4.397-1.126,2.131-1.189,2.973-3.117,2.987-5.447.028-4.796.01-9.593.008-14.389,0-1.772-.27-2.037-2.089-2.091-.152-.005-.303-.028-.499-.048Z"/>
  <path class="cls-1" d="m415.584,84.085h-9.794c-.03-.449-.06-.895-.095-1.425.371-.027.638-.042.905-.068,1.042-.099,1.363-.554.976-1.497-.651-1.585-1.323-3.162-2.052-4.712-.127-.269-.571-.547-.873-.552-2.477-.044-4.956-.053-7.433.008-.346.009-.834.384-.994.715-.625,1.289-1.148,2.627-1.702,3.95-.698,1.668-.516,1.958,1.402,2.144v1.419h-7.68v-1.428c2.051.187,2.785-1.226,3.41-2.757,2.428-5.95,4.843-11.906,7.281-17.852.587-1.433,1.2-2.859,1.891-4.244.227-.455.737-.768,1.117-1.147.353.36.848.657,1.038,1.088,3.266,7.443,6.502,14.9,9.725,22.362.515,1.193,1.051,2.293,2.425,2.758.24.081.284.743.453,1.237Zm-17.972-11.137h6.402c-1.042-2.404-2.039-4.705-3.185-7.348-1.153,2.633-2.15,4.911-3.217,7.348Z"/>
  <path class="cls-1" d="m171.466,68.399c2.421,0,4.739.024,7.056-.01,1.191-.018,1.475-.531,1.504-2.54h1.651c0,2.435.024,4.937-.042,7.438-.006.219-.599.556-.94.582-.212.017-.628-.424-.667-.7-.262-1.854-.38-1.989-2.232-1.991-2.076-.003-4.151,0-6.392,0,0,1.229,0,2.374,0,3.519,0,1.84-.018,3.68.005,5.519.023,1.826.655,2.479,2.533,2.649v1.194h-10.084v-1.216q2.498-.699,2.498-3.376c0-6.079.015-12.158-.008-18.237-.008-2.117-.556-2.562-2.604-2.716v-1.355h20.817c.188,2.155.379,4.34.578,6.621-.562.028-.979.05-1.386.07-.145-.704-.216-1.363-.421-1.978-.379-1.134-1.146-2.059-2.364-2.097-3.144-.098-6.292-.033-9.501-.033v8.657Z"/>
  <path class="cls-1" d="m359.521,57.154c0,2.869.025,5.662-.036,8.453-.006.297-.468.751-.796.838-.681.18-.811-.302-.867-.92-.237-2.639-1.398-4.779-3.944-5.742-2.958-1.119-5.752.575-5.554,3.144.077.994.918,2.108,1.718,2.823,1.021.913,2.399,1.412,3.542,2.206,1.797,1.248,3.661,2.45,5.252,3.934,2.253,2.101,2.558,4.856,1.541,7.637-.953,2.606-3.004,4.079-5.715,4.723-2.409.572-4.595-.048-6.718-1.048-.977-.46-1.667-.639-2.192.603-.139.329-.888.4-1.496.645v-9.751h1.22c.486,1.414.761,2.842,1.439,4.042,1.1,1.949,2.781,3.35,5.164,3.31,2.189-.036,3.995-1.563,4.267-3.858.16-1.354-.589-2.563-1.706-3.357-1.82-1.292-3.675-2.544-5.586-3.695-2.058-1.24-3.808-2.617-4.732-5.008-1.527-3.952,2.164-9.258,6.372-9.267,1.983-.004,3.843.366,5.636,1.228.346.166,1.236.013,1.299-.182.323-.985,1.025-.814,1.89-.757Z"/>
  <path class="cls-1" d="m388.709,34.201v-9.658h1.504c-.103,2.471.879,4.48,2.706,6.062,2.445,2.117,5.169,1.669,6.858-.296,1.367-1.591,1.358-3.488-.103-4.872-1.291-1.224-2.817-2.21-4.291-3.226-1.181-.814-2.452-1.497-3.663-2.27-2.101-1.342-3.329-3.376-3.329-5.762,0-2.922,1.814-6.189,5.559-7.215,2.209-.605,4.283.082,6.314.871.817.317,1.583.877,2.063-.47.086-.24.809-.254,1.386-.412v9.295h-1.452c.106-2.109-.565-3.929-2.157-5.393-1.248-1.148-2.704-1.625-4.355-1.483-2.288.197-3.835,2.946-2.558,4.829.744,1.097,1.97,1.911,3.084,2.705,2.169,1.547,4.574,2.8,6.588,4.518,4.153,3.544,2.672,10.868-2.96,12.479-2.542.727-4.995.511-7.361-.649-.944-.463-1.758-.764-2.36.532-.128.275-.879.261-1.471.414Z"/>
  <path class="cls-1" d="m331.614,8.551c-1.473.052-1.912,1.202-2.348,2.252-1.138,2.74-2.208,5.509-3.295,8.271-1.809,4.596-3.605,9.198-5.424,13.79-.218.551-.298,1.442-1.185,1.177-.456-.136-.936-.649-1.137-1.109-3.168-7.234-6.278-14.493-9.441-21.729-.491-1.123-.801-2.476-2.433-2.664-.192-.022-.294-.832-.479-1.406h9.691v1.475c-.251.013-.442.025-.633.033-1.232.05-1.503.444-1.014,1.564,1.403,3.217,2.826,6.425,4.239,9.637.718,1.632,1.431,3.266,2.27,5.181,2.079-5.175,4.047-10.084,6.025-14.989.383-.95-.016-1.352-.935-1.424-.228-.018-.458-.003-.741-.003v-1.466h6.841v1.409Z"/>
  <path class="cls-1" d="m424.217,14.143c.111-2.113.238-4.166.317-6.221.027-.703.38-.865.995-.865,6.959.009,13.918-.005,20.877.038.319.002.889.456.912.736.167,1.975.222,3.959.317,6.015-.489.058-.93.111-1.375.163-.565-3.562-.761-4.334-4.928-4.174-.91.035-1.823.005-2.851.005,0,.514,0,.941,0,1.368,0,6.279,0,12.558,0,18.837,0,2.009.451,2.494,2.535,2.658v1.339h-10.128c-.018-.403-.036-.819-.056-1.265.505-.116,1.043-.098,1.38-.349.49-.366,1.183-.923,1.189-1.404.076-7.026.052-14.052.052-21.173-1.794,0-3.507-.063-5.213.021-1.26.062-2.436,1.354-2.431,2.831.004,1.138-.575,1.307-1.591,1.44Z"/>
  <path class="cls-1" d="m385.723,76.357h1.518c-.789,2.634-1.554,5.186-2.314,7.723h-19.721c-.024-.473-.045-.893-.065-1.296,2.528-.672,2.574-.734,2.574-3.355,0-6.038.011-12.076-.006-18.114-.006-2.268-.581-2.63-2.611-2.818v-1.344h10.198v1.264c-2.206.442-2.531.849-2.532,3.197-.002,5.918-.002,11.836,0,17.754,0,1.778.245,2.026,1.972,2.027,1.599,0,3.202-.061,4.798.014,2.82.132,4.605-1.224,5.657-3.73.184-.437.353-.879.531-1.323Z"/>
  <path class="cls-1" d="m302.83,32.723v1.333h-10.14c-.233-1.528-.224-1.467,1.246-1.693.453-.07.992-.488,1.215-.897.247-.454.236-1.08.237-1.631.014-6.076.009-12.152.009-18.229,0-2.504-.302-2.848-2.765-3.083v-1.409h10.162c0,.461,0,.911,0,1.362-2.091.366-2.41.729-2.413,2.897-.008,6.116-.003,12.232-.003,18.349,0,.12-.003.24,0,.36.066,1.935.539,2.454,2.451,2.642Z"/>
  <path class="cls-1" d="m420.169,32.707v1.335h-10.198v-1.286c2.287-.34,2.588-.703,2.588-3.099,0-6.116.001-12.231,0-18.347,0-2.152-.402-2.596-2.563-2.773v-1.419h9.97c.113.876.141,1.49-1.073,1.633-.484.057-1.223,1.017-1.231,1.574-.088,6.674-.07,13.35-.055,20.025.004,1.649.625,2.202,2.562,2.356Z"/>
  <path class="cls-1" d="m237.122,115.524c0,1.557-.071,3.119.046,4.666.033.438.619.833.948,1.25.181.23.353.466.665.878h-6.056c-.082-.084-.164-.167-.246-.251.269-.289.542-.575.806-.869.275-.307.77-.619.774-.935.053-3.796.057-7.593-.007-11.388-.006-.372-.532-.751-.85-1.095-.219-.238-.496-.422-.747-.63.071-.186.142-.372.213-.557,2.978.233,5.984.291,8.926.752,2.51.394,3.462,4.102,1.682,6.083-.572.637-1.343,1.094-2.148,1.733,1.522,1.935,3.088,3.93,4.662,5.917.116.147.312.228.454.358.165.15.311.32.465.481-.197.16-.387.448-.592.459-.957.05-1.923.082-2.873-.011-.309-.03-.63-.42-.857-.713-1.418-1.831-2.824-3.672-4.2-5.534-.227-.307-.288-.736-.426-1.109-.213.172-.426.344-.639.516Zm.048-7.022v5.399c2.066.215,3.713-.864,3.799-2.459.117-2.174-.922-3.007-3.799-2.94Z"/>
  <path class="cls-1" d="m159.397,106.828h6.196c-.318.433-.523.686-.698.959-.319.496-.871.994-.889,1.506-.091,2.596-.077,5.198-.031,7.797.041,2.319,1.413,3.701,3.521,3.664,2.365-.041,3.851-1.487,3.86-3.784.011-2.639-.009-5.279.009-7.918.005-.72-.096-1.249-.988-1.324-.217-.018-.398-.451-.745-.876h5.127c-.333.415-.517.859-.733.875-.941.071-.944.686-.943,1.359.003,2.479-.079,4.962.019,7.438.173,4.379-2.939,5.872-5.961,5.932-3.868.076-6.527-2.61-6.267-6.296.155-2.189.023-4.397.028-6.597.002-.788-.02-1.519-.982-1.822-.208-.066-.299-.502-.524-.913Z"/>
  <path class="cls-1" d="m262.803,122.349c-4.134.218-4.207.206-4.616-.877,1.648.101,1.966-1.184,2.434-2.312,1.615-3.889,3.214-7.785,4.846-11.666.152-.362.499-.643.755-.962.268.307.631.571.788.927,1.812,4.121,3.569,8.266,5.405,12.376.323.723.946,1.312,1.561,2.139-.05.036-.312.393-.585.402-1.671.053-3.344.026-4.989.026-.3-1.051.271-1.285,1.241-1.236-.495-1.174-.894-2.204-1.375-3.193-.098-.201-.503-.344-.772-.353-1.197-.037-2.401-.071-3.593.017-.359.026-.773.386-1.011.705-.277.372-.424.856-.564,1.311-.206.674-1.162,1.53.389,1.877.08.018.056.502.084.819Zm2.806-10.502c-.635,1.48-1.159,2.702-1.718,4.005h3.46c-.572-1.316-1.102-2.535-1.742-4.005Z"/>
  <path class="cls-1" d="m136.655,122.402c-1.233,0-2.266,0-3.299,0-.355,0-.71,0-1.357,0,.271-.462.393-.772.601-1.006.501-.565,1.252-1.004,1.533-1.654,1.755-4.047,3.401-8.141,5.108-12.209.156-.371.491-.666.743-.997.291.332.688.617.858,1.002,1.772,4.01,3.475,8.05,5.282,12.043.325.718,1.055,1.246,1.552,1.896.151.198.148.514.234.845h-5.655l-.241-.297c.394-.356.789-.712,1.311-1.183-.367-.847-.764-1.838-1.234-2.792-.105-.214-.458-.408-.711-.428-.715-.058-1.437-.021-2.157-.021-2.35,0-2.82.38-3.411,2.702-.134.526-.312.988.473,1.174.16.038.215.516.368.925Zm1.015-6.545h3.49c-.559-1.264-1.074-2.428-1.59-3.592-.108-.001-.216-.002-.325-.004-.511,1.167-1.023,2.335-1.575,3.596Z"/>
  <path class="cls-1" d="m332.429,122.357h-4.992c.498-.548.765-.863,1.055-1.156.368-.372.919-.655,1.108-1.097,1.772-4.155,3.474-8.339,5.226-12.502.168-.4.533-.718.807-1.074.282.349.658.656.832,1.052,1.795,4.083,3.532,8.191,5.356,12.261.278.62.927,1.071,1.384,1.617.128.154.282.399.239.551-.043.153-.314.339-.488.342-1.711.025-3.423.015-5.135.015-.074-.107-.149-.214-.223-.321.362-.359.724-.719,1.285-1.276-.338-.78-.762-1.828-1.256-2.842-.088-.18-.457-.284-.708-.309-.474-.048-.957-.015-1.437-.015-3.099,0-3.114-.006-4.151,2.891-.086.241.183.641.349.931.157.275.397.503.747.932Zm.845-6.478h3.492c-.574-1.321-1.111-2.558-1.745-4.018-.639,1.469-1.165,2.681-1.747,4.018Z"/>
  <path class="cls-1" d="m195.055,106.819v5.367c-.332.038-.659.076-1.07.124-.02-.394-.05-.7-.048-1.007.013-1.988-2.665-3.672-4.121-2.812-1.294.764-1.537,1.814-.524,2.911.369.4.872.681,1.333.99,1.224.821,2.515,1.554,3.675,2.456,1.548,1.204,1.895,3.351,1.351,4.725-.722,1.824-2.194,2.844-4.252,2.82-.662-.008-1.33-.084-1.98-.21-.837-.162-1.697-1.11-2.455.159-.047.078-.373-.011-.688-.03,0-1.694-.023-3.366.028-5.034.007-.215.398-.418.765-.777.286,1.821.727,3.285,2.149,3.986.737.363,1.824.511,2.575.248,1.695-.594,1.942-2.462.49-3.628-1.33-1.068-2.85-1.898-4.275-2.85-2.979-1.989-2.017-6.233.665-7.159,1.107-.383,2.471-.127,3.703-.004.717.072,1.437.819,2.002-.263.042-.081.373-.011.678-.011Z"/>
  <path class="cls-1" d="m217.461,122.318h-6.398c.421-.506.676-.808.924-1.114.286-.352.805-.706.811-1.065.059-3.831.037-7.663.037-11.646-1.006,0-1.953-.065-2.888.018-.959.085-1.252.833-1.424,1.677-.061.298-.341.551-.521.825-.134-.056-.268-.111-.402-.166,0-1.103-.045-2.209.033-3.306.018-.261.441-.705.682-.707,4.106-.044,8.214-.031,12.402-.031v4.006c-.233.014-.513.031-.831.05.158-3.567-2.425-2.004-4.122-2.439,0,4.074-.027,7.981.043,11.887.007.384.609.756.932,1.137.189.223.372.452.722.877Z"/>
  <path class="cls-1" d="m298.362,118.08c-.436,1.411-.871,2.822-1.308,4.238h-11.494c.33-.492.517-1.045.743-1.062.883-.064.924-.65.927-1.256.013-3.636.039-7.273-.036-10.908-.009-.446-.578-.889-.907-1.319-.186-.244-.411-.459-.822-.911h6.299c-.252.379-.382.817-.616.881-.803.223-.935.794-.937,1.466-.008,3.476,0,6.953-.011,10.429-.002.729.253,1.121,1.053,1.089.957-.038,1.918.005,2.877-.012,1.516-.026,2.496-.789,3.083-2.178.141-.335.573-.546.871-.815.092.119.185.237.277.356Z"/>
  <path class="cls-1" d="m316.292,122.311h-6.466c.401-.501.606-1,.852-1.021.993-.084,1.019-.796,1.024-1.453.027-3.513.026-7.026.002-10.538-.005-.729-.113-1.445-1.108-1.569-.226-.028-.404-.441-.772-.874h6.604c-.406.446-.582.816-.843.891-.751.217-.964.655-.958,1.404.03,3.552.011,7.105.016,10.658.001.78.039,1.525,1.092,1.664.18.024.307.446.557.838Z"/>
  <path class="cls-1" d="m284.069,23.731c-.011.059-.022.118-.033.177-.031-.055-.062-.109-.094-.164.038-.048.08-.052.127-.014Z"/>
  <path class="cls-1" d="m439.611,73.658c-.003.064-.006.128-.009.191-.072-.04-.145-.081-.217-.121.075-.023.15-.047.226-.07Z"/>
  <path class="cls-1" d="m334.971,73.658c-.002.069-.004.137-.005.206-.075-.043-.15-.087-.225-.13.077-.025.154-.05.23-.076Z"/>
  <path class="cls-1" d="m319.996,65.064c.003-.058.007-.115.01-.173.057.046.113.091.17.137,0,0-.084.044-.084.044l-.095-.008Z"/>
  <path class="cls-1" d="m21.668,91.766c.699-.433,1.39-.88,2.099-1.298,4.725-2.785,8.095-6.706,9.819-11.934.952-2.887,1.728-5.832,2.665-9.029-9.85,1.535-18.032,4.965-22.471,14.747V21.379c4.374,9.688,12.566,13.143,22.204,14.75-1.144-6.298-2.578-12.293-7.109-16.877-1.824-1.846-4.155-3.192-6.258-4.762-.308-.23-.632-.438-.95-.656,0,0-.007-.036-.007-.036,20.678-.003,41.357-.005,62.035-.008,0,0,.026.098.026.098-1.628,1.056-3.331,2.015-4.869,3.189-3.569,2.725-5.895,6.382-7.308,10.591-.898,2.673-1.55,5.429-2.385,8.404,9.78-1.464,17.966-4.879,22.467-14.256v62.368c-4.432-9.767-12.663-13.141-22.238-14.595,1.474,8.541,4.252,16.206,12.217,20.843.712.414,1.411.852,2.115,1.278,0,0-.024.098-.024.098-20.678-.003-41.357-.005-62.035-.008,0,0,.005-.035.005-.035Zm48.241-51.023c-.16.027-.32.054-.481.081v22.02c-3.193,0-6.224.055-9.253-.019-2.025-.049-3.948.179-5.786,1.089-1.149.569-2.313.47-3.552.044-1.47-.505-3.016-.994-4.549-1.065-3.382-.158-6.777-.049-10.281-.049v-22.63c-.983.535-1.805.982-2.717,1.478v3.667c-1.421,0-2.74.017-4.057-.013-.285-.007-.627-.113-.84-.295-1.748-1.488-3.127-1.245-4.241.727-.21.371-.637.618-.961.926-.185.176-.538.398-.508.53.062.27.353.716.509.7.854-.091.911.569,1.182,1.071.887,1.648,2.463,1.892,3.856.628.193-.175.438-.405.664-.411,1.503-.037,3.007-.019,4.516-.019v7.197c-1.483,0-2.882.018-4.279-.015-.281-.007-.611-.144-.826-.329-1.663-1.428-3.147-1.111-4.101.849-.18.371-.589.635-.908.932-.202.189-.432.347-.65.519.2.224.419.653.597.637.654-.061.7.381.921.791.523.972,1.17,1.93,2.478,1.629.688-.159,1.291-.823,1.965-.881,1.567-.136,3.154-.043,4.79-.043v4.829h1.224c3.24,0,6.48.039,9.719-.013,2.258-.036,4.397.288,6.493,1.206.819.359,2.02.51,2.801.177,3.955-1.682,8.087-1.361,12.2-1.369,1.947-.004,3.895,0,5.957,0v-5.04c.629,0,1.142,0,1.655,0,1.64-.004,3.281.029,4.919-.026.992-.033,1.646-.608,1.8-1.608.154-1-.291-1.732-1.239-2.064-.438-.154-.939-.166-1.412-.171-1.827-.018-3.655-.007-5.493-.007v-7.243c1.975,0,3.885.004,5.796-.001,1.534-.005,2.373-.688,2.374-1.916,0-1.211-.852-1.906-2.379-1.913-1.987-.009-3.974-.002-5.938-.002-.506-1.686.974-4.099-1.966-4.581Zm-3.218-.791c-1.14-.189-2.136-.397-3.142-.511-1.892-.215-3.788-.507-5.685-.528-2.543-.029-3.82,1.366-3.82,3.853,0,4.199,0,8.398,0,12.596,0,1.95,0,3.9,0,5.985,4.171-1.627,8.432-.557,12.648-1.002v-20.393Zm-15.419,21.356c.042-.237.081-.354.081-.471.004-6.278.016-12.557-.002-18.835-.004-1.474-.916-2.522-2.344-2.883-3.506-.886-6.846.554-10.265.594v20.539c4.209.409,8.474-.592,12.53,1.055Z"/>
  <path class="cls-1" d="m21.662,13.799s.007.036.007.036c-.066-.006-.133-.011-.199-.017.064-.006.128-.013.192-.019Z"/>
  <path class="cls-1" d="m83.723,13.889s-.026-.098-.026-.098c.064.015.128.029.191.044-.055.018-.11.036-.166.054Z"/>
  <path class="cls-1" d="m83.699,91.809s.024-.098.024-.098c.055.018.111.035.166.053-.063.015-.127.03-.19.045Z"/>
  <path class="cls-1" d="m21.668,91.766s-.005.035-.005.035c-.065-.005-.129-.011-.194-.016l.199-.019Z"/>
  <path class="cls-1" d="m69.909,40.743c-.16.027-.32.054-.481.081.16-.027.32-.054.481-.081Z"/>
  <path class="cls-1" d="m27.551,57.623c-.733.074-1.466.148-2.199.221-.065-.149-.13-.298-.194-.446.446-.338.861-.875,1.347-.949.364-.055.819.485,1.234.76-.062.138-.125.276-.187.414Z"/>
  <path class="cls-1" d="m27.731,48.339c-.394.287-.801.821-1.178.799-.473-.027-.92-.507-1.378-.792l.135-.282h2.243c.059.092.118.183.177.275Z"/>
  <path class="cls-1" d="m27.759,59.461c-.425.261-.857.735-1.274.723-.428-.013-.841-.503-1.261-.784l.202-.313h2.078c.085.125.17.249.255.374Z"/>
  <path class="cls-1" d="m25.465,46.606c-.191-.793.223-1.157.937-1.241.794-.094,1.131.354,1.244,1.212h-2.194l.014.029Z"/>
  <path class="cls-1" d="m25.451,46.576c-.057.025-.113.05-.17.074.008-.033.016-.066.024-.099.053.017.106.034.159.052,0,.001-.013-.028-.013-.028Z"/>
</svg>