<?xml version="1.0" encoding="UTF-8"?>
<svg id="Layer_2" data-name="Layer 2" xmlns="http://www.w3.org/2000/svg" viewBox="0 0 6090.98 4817.18">
  <defs>
    <style>
      .cls-1 {
        fill: #fff;
      }
    </style>
  </defs>
  <polygon class="cls-1" points="3091.33 3093.47 3090.98 3083.47 6090.63 3057.29 6090.98 3067.29 3091.33 3093.47"/>
  <polygon class="cls-1" points="2987.06 3080.6 2987.4 3070.6 5981.58 3253.73 5981.23 3263.73 2987.06 3080.6"/>
  <polygon class="cls-1" points="2883.94 3060.49 2884.98 3050.54 5859.08 3442.08 5858.04 3452.03 2883.94 3060.49"/>
  <polygon class="cls-1" points="2782.47 3033.23 2784.21 3023.38 5723.75 3621.43 5722.02 3631.28 2782.47 3033.23"/>
  <polygon class="cls-1" points="2683.16 2998.96 2685.58 2989.25 5576.24 3790.9 5573.82 3800.61 2683.16 2998.96"/>
  <polygon class="cls-1" points="2586.47 2957.85 2589.56 2948.33 5417.27 3949.67 5414.18 3959.19 2586.47 2957.85"/>
  <polygon class="cls-1" points="2492.89 2910.09 2496.64 2900.81 5247.6 4096.96 5243.86 4106.24 2492.89 2910.09"/>
  <polygon class="cls-1" points="2402.87 2855.92 2407.26 2846.93 5068.08 4232.06 5063.69 4241.06 2402.87 2855.92"/>
  <polygon class="cls-1" points="2316.85 2795.6 2321.85 2786.94 4879.57 4354.31 4874.57 4362.97 2316.85 2795.6"/>
  <polygon class="cls-1" points="2235.24 2729.43 2240.83 2721.14 4682.99 4463.11 4677.4 4471.4 2235.24 2729.43"/>
  <polygon class="cls-1" points="2158.45 2657.73 2164.61 2649.85 4479.3 4557.93 4473.14 4565.81 2158.45 2657.73"/>
  <polygon class="cls-1" points="2086.85 2580.85 2093.54 2573.41 4269.49 4638.31 4262.8 4645.75 2086.85 2580.85"/>
  <polygon class="cls-1" points="2020.78 2499.16 2027.98 2492.21 4054.59 4703.86 4047.39 4710.81 2020.78 2499.16"/>
  <polygon class="cls-1" points="1960.57 2413.05 1968.24 2406.62 3835.64 4754.26 3827.97 4760.69 1960.57 2413.05"/>
  <polygon class="cls-1" points="1906.52 2322.96 1914.62 2317.08 3613.7 4789.27 3605.61 4795.15 1906.52 2322.96"/>
  <polygon class="cls-1" points="1858.88 2229.32 1867.37 2224.02 3389.87 4808.7 3381.38 4814 1858.88 2229.32"/>
  <polygon class="cls-1" points="1817.9 2132.58 1826.73 2127.89 3165.22 4812.48 3156.39 4817.18 1817.9 2132.58"/>
  <polygon class="cls-1" points="1783.76 2033.22 1792.89 2029.15 2940.86 4800.57 2931.72 4804.64 1783.76 2033.22"/>
  <polygon class="cls-1" points="1756.63 1931.72 1766.03 1928.3 2717.87 4773.05 2708.47 4776.47 1756.63 1931.72"/>
  <polygon class="cls-1" points="1736.65 1828.58 1746.27 1825.82 2497.35 4730.04 2487.73 4732.79 1736.65 1828.58"/>
  <polygon class="cls-1" points="1723.91 1724.29 1733.7 1722.21 2280.36 4671.74 2270.58 4673.82 1723.91 1724.29"/>
  <polygon class="cls-1" points="1718.48 1619.37 1728.39 1617.98 2067.97 4598.46 2058.07 4599.85 1718.48 1619.37"/>
  <polygon class="cls-1" points="1720.38 1514.32 1730.36 1513.63 1861.21 4510.54 1851.23 4511.23 1720.38 1514.32"/>
  <polygon class="cls-1" points="1729.61 1409.67 1739.61 1409.67 1661.09 4408.4 1651.08 4408.4 1729.61 1409.67"/>
  <polygon class="cls-1" points="1746.11 1305.91 1756.09 1306.61 1468.58 4292.56 1458.6 4291.86 1746.11 1305.91"/>
  <polygon class="cls-1" points="1769.81 1203.55 1779.72 1204.95 1284.61 4163.57 1274.71 4162.18 1769.81 1203.55"/>
  <polygon class="cls-1" points="1800.59 1103.1 1810.38 1105.18 1110.1 4022.06 1100.31 4019.98 1800.59 1103.1"/>
  <polygon class="cls-1" points="1838.31 1005.04 1847.92 1007.8 945.88 3868.73 936.26 3865.97 1838.31 1005.04"/>
  <polygon class="cls-1" points="1882.77 909.85 1892.17 913.27 792.75 3704.31 783.35 3700.89 1882.77 909.85"/>
  <polygon class="cls-1" points="1933.76 817.99 1942.9 822.06 651.47 3529.61 642.33 3525.54 1933.76 817.99"/>
  <polygon class="cls-1" points="1991.04 729.92 1999.87 734.62 522.72 3345.48 513.89 3340.78 1991.04 729.92"/>
  <polygon class="cls-1" points="2054.32 646.05 2062.81 651.35 407.13 3152.82 398.64 3147.52 2054.32 646.05"/>
  <polygon class="cls-1" points="2123.3 566.81 2131.4 572.69 305.26 2952.56 297.16 2946.68 2123.3 566.81"/>
  <polygon class="cls-1" points="2197.64 492.56 2205.3 498.99 217.6 2745.69 209.94 2739.26 2197.64 492.56"/>
  <polygon class="cls-1" points="2276.98 423.69 2284.17 430.64 144.59 2533.2 137.39 2526.25 2276.98 423.69"/>
  <polygon class="cls-1" points="2360.92 360.51 2367.62 367.95 86.58 2316.14 79.89 2308.71 2360.92 360.51"/>
  <polygon class="cls-1" points="2449.07 303.35 2455.23 311.23 43.85 2095.56 37.69 2087.68 2449.07 303.35"/>
  <polygon class="cls-1" points="2541 252.47 2546.59 260.77 16.62 1872.54 11.02 1864.25 2541 252.47"/>
  <polygon class="cls-1" points="2636.24 208.13 2641.25 216.8 5 1648.16 0 1639.5 2636.24 208.13"/>
  <polygon class="cls-1" points="2734.35 170.55 2738.74 179.54 9.07 1423.52 4.68 1414.53 2734.35 170.55"/>
  <polygon class="cls-1" points="2834.84 139.89 2838.59 149.17 28.8 1199.71 25.05 1190.44 2834.84 139.89"/>
  <polygon class="cls-1" points="2937.23 116.33 2940.32 125.84 64.09 977.82 61 968.31 2937.23 116.33"/>
  <polygon class="cls-1" points="3041.01 99.96 3043.43 109.66 114.77 758.94 112.35 749.23 3041.01 99.96"/>
  <polygon class="cls-1" points="3145.68 90.87 3147.41 100.72 180.6 544.12 178.86 534.26 3145.68 90.87"/>
  <polygon class="cls-1" points="3250.72 89.1 3251.77 99.05 261.25 334.41 260.21 324.46 3250.72 89.1"/>
  <polygon class="cls-1" points="3355.64 94.67 3355.99 104.67 356.34 130.85 355.99 120.85 3355.64 94.67"/>
</svg>